<svg width="200" height="218" viewBox="0 0 200 218" fill="none" xmlns="http://www.w3.org/2000/svg">
<path d="M99.311 77.853L175.453 204.013L21.028 202.853L99.311 77.853Z" stroke="black" stroke-width="2.37048"/>
<path d="M99.315 17.271L175.457 138.381L21.032 137.268L99.315 17.271Z" stroke="black" stroke-width="2.32256"/>
<path d="M99.37 200.763L175.568 73.005L21.031 74.179L99.37 200.763Z" stroke="black" stroke-width="2.38632"/>
<path opacity="0.6" d="M100.061 191.151C139.628 191.151 171.704 178.332 171.704 162.518C171.704 146.704 139.628 133.885 100.061 133.885C60.4937 133.885 28.418 146.704 28.418 162.518C28.418 178.332 60.4937 191.151 100.061 191.151Z" fill="url(#paint0_radial_1_56)"/>
<path opacity="0.7" d="M98.424 37.567C82.874 37.567 73.088 43.747 59.166 47.982L75.194 64.904C76.6 71.41 76.825 78.737 72.254 84.427C61.782 97.44 43.189 115.542 43.461 144.296C43.461 165.848 68.085 183.343 98.42 183.343C128.76 183.343 153.383 165.853 153.383 144.296C152.042 116.745 135.062 97.44 124.59 84.427C115.98 73.714 124.164 57.324 125.411 51.397C126.49 50.31 127.211 49.2 127.211 47.982C127.211 42.236 113.969 37.567 98.42 37.567H98.424Z" fill="url(#paint1_linear_1_56)" stroke="black" stroke-width="5.22028" stroke-linecap="round" stroke-linejoin="round"/>
<path opacity="0.5" d="M98.427 40.13C85.053 40.13 75.788 44.941 63.739 49.07L77.07 63.142C77.3925 63.4822 77.6153 63.9038 77.714 64.361C79.185 71.201 79.546 79.459 74.27 86.019C63.597 99.289 45.78 116.631 46.041 144.276C46.041 144.283 46.041 144.29 46.041 144.297C46.041 154.106 51.626 163.113 61.069 169.818C70.512 176.529 83.755 180.783 98.427 180.783C113.099 180.783 126.342 176.529 135.784 169.818C145.206 163.123 150.781 154.132 150.802 144.349C149.477 117.824 133.115 99.118 122.589 86.024C117.626 79.86 117.584 72.196 118.767 65.667C119.961 59.134 122.4 53.199 122.892 50.871C122.992 50.3917 123.228 49.951 123.572 49.601C124.442 48.726 124.64 48.195 124.64 47.981C124.64 47.524 124.373 46.837 123.238 45.889C122.107 44.936 120.212 43.9 117.778 43.026C112.91 41.286 105.943 40.13 98.427 40.13Z" fill="url(#paint2_linear_1_56)"/>
<path d="M68.816 105.248C60.783 115.714 53.773 127.752 53.932 144.132V144.296C53.932 151.133 57.806 157.882 65.707 163.493C73.609 169.109 85.275 172.933 98.424 172.933C111.573 172.933 123.235 169.109 131.137 163.493C138.982 157.924 142.86 151.245 142.917 144.463V144.296C142.021 128.615 135.188 115.952 127.535 105.248H68.816Z" fill="url(#paint3_radial_1_56)" stroke="#CE0048" stroke-width="5.21916" stroke-linecap="round" stroke-linejoin="round"/>
<path d="M98.424 116.259C115.241 116.259 128.873 111.329 128.873 105.248C128.873 99.1668 115.241 94.237 98.424 94.237C81.6075 94.237 67.975 99.1668 67.975 105.248C67.975 111.329 81.6075 116.259 98.424 116.259Z" fill="#F23154"/>
<path opacity="0.59" d="M98.424 42.777C87.231 42.777 78.729 46.555 68.652 50.258L79.123 61.322C79.7681 62.0042 80.2196 62.8462 80.431 63.761C81.979 70.944 82.354 80.201 76.342 87.678C65.459 101.208 48.442 117.818 48.694 144.3C48.694 153.083 53.688 161.23 62.598 167.56C71.512 173.894 84.277 178.138 98.424 178.138C112.572 178.138 125.331 173.894 134.246 167.56C143.052 161.306 148.032 153.288 148.149 144.622V144.296C146.785 118.942 131.08 100.822 120.506 87.678C114.865 80.668 114.832 72.128 116.089 65.225C117.346 58.327 120.483 51.919 120.834 50.258C121.023 49.4167 121.416 48.635 121.979 47.982C121.186 47.343 119.071 46.317 116.905 45.543C112.45 43.943 105.664 42.777 98.424 42.777Z" stroke="url(#paint4_linear_1_56)" stroke-width="5.22028" stroke-linecap="round" stroke-linejoin="round"/>
<path d="M74.706 53.187C82.19 55.995 89.356 58.393 98.424 58.393C105.754 58.393 112.469 57.226 116.904 55.627C119.127 54.829 120.731 53.831 121.486 53.187" stroke="url(#paint5_radial_1_56)" stroke-width="5.22028" stroke-linecap="round" stroke-linejoin="round"/>
<path opacity="0.7" d="M82.72 53.187C89.229 54.475 93.693 54.447 98.424 54.596C101.041 94.838 85.341 131.283 98.424 165.121H82.72C43.461 123.471 106.274 89.633 82.72 53.187Z" fill="url(#paint6_radial_1_56)"/>
<path opacity="0.15" d="M74.706 58.393C82.19 61.2 89.356 63.603 98.424 63.603C105.754 63.603 112.469 62.436 116.904 60.836C119.127 60.034 120.731 59.036 121.486 58.393" stroke="url(#paint7_radial_1_56)" stroke-width="5.22028" stroke-linecap="round" stroke-linejoin="round"/>
<path d="M99.734 31.681C107.298 31.681 113.429 25.5495 113.429 17.986C113.429 10.4225 107.298 4.291 99.734 4.291C92.1705 4.291 86.039 10.4225 86.039 17.986C86.039 25.5495 92.1705 31.681 99.734 31.681Z" stroke="black" stroke-width="2"/>
<path d="M99.734 215.681C107.298 215.681 113.429 209.55 113.429 201.986C113.429 194.422 107.298 188.291 99.734 188.291C92.1705 188.291 86.039 194.422 86.039 201.986C86.039 209.55 92.1705 215.681 99.734 215.681Z" stroke="black" stroke-width="2" stroke-dasharray="4 2"/>
<path d="M21.734 215.681C29.2975 215.681 35.429 209.55 35.429 201.986C35.429 194.422 29.2975 188.291 21.734 188.291C14.1705 188.291 8.039 194.422 8.039 201.986C8.039 209.55 14.1705 215.681 21.734 215.681Z" stroke="black" stroke-width="2"/>
<path d="M175.734 215.681C183.298 215.681 189.429 209.55 189.429 201.986C189.429 194.422 183.298 188.291 175.734 188.291C168.17 188.291 162.039 194.422 162.039 201.986C162.039 209.55 168.17 215.681 175.734 215.681Z" stroke="black" stroke-width="2"/>
<path d="M175.734 87.681C183.298 87.681 189.429 81.5495 189.429 73.986C189.429 66.4225 183.298 60.291 175.734 60.291C168.17 60.291 162.039 66.4225 162.039 73.986C162.039 81.5495 168.17 87.681 175.734 87.681Z" stroke="black" stroke-width="2" stroke-dasharray="4 2"/>
<path d="M21.734 87.681C29.2975 87.681 35.429 81.5495 35.429 73.986C35.429 66.4225 29.2975 60.291 21.734 60.291C14.1705 60.291 8.039 66.4225 8.039 73.986C8.039 81.5495 14.1705 87.681 21.734 87.681Z" stroke="black" stroke-width="2" stroke-dasharray="4 2"/>
<defs>
<radialGradient id="paint0_radial_1_56" cx="0" cy="0" r="1" gradientUnits="userSpaceOnUse" gradientTransform="translate(100.056 162.515) scale(71.649 28.6358)">
<stop/>
<stop offset="1" stop-opacity="0"/>
</radialGradient>
<linearGradient id="paint1_linear_1_56" x1="54.8923" y1="110.457" x2="145.227" y2="110.457" gradientUnits="userSpaceOnUse">
<stop stop-color="white"/>
<stop offset="0.5" stop-color="#797A76"/>
<stop offset="1" stop-color="white"/>
</linearGradient>
<linearGradient id="paint2_linear_1_56" x1="100.389" y1="47.9611" x2="100.389" y2="134.395" gradientUnits="userSpaceOnUse">
<stop stop-color="white"/>
<stop offset="1" stop-color="white" stop-opacity="0"/>
</linearGradient>
<radialGradient id="paint3_radial_1_56" cx="0" cy="0" r="1" gradientUnits="userSpaceOnUse" gradientTransform="translate(86.3881 123.439) scale(52.0328 73.3989)">
<stop stop-color="#F05252"/>
<stop offset="1" stop-color="#F50056"/>
</radialGradient>
<linearGradient id="paint4_linear_1_56" x1="79.4519" y1="62.6271" x2="126.737" y2="241.068" gradientUnits="userSpaceOnUse">
<stop stop-color="white"/>
<stop offset="1" stop-color="white" stop-opacity="0"/>
</linearGradient>
<radialGradient id="paint5_radial_1_56" cx="0" cy="0" r="1" gradientUnits="userSpaceOnUse" gradientTransform="translate(98.0962 57.7437) scale(21.2888 15.6024)">
<stop stop-color="white"/>
<stop offset="1" stop-color="white" stop-opacity="0"/>
</radialGradient>
<radialGradient id="paint6_radial_1_56" cx="0" cy="0" r="1" gradientUnits="userSpaceOnUse" gradientTransform="translate(79.8485 116.306) scale(36.2154 34.9756)">
<stop stop-color="white"/>
<stop offset="1" stop-color="white" stop-opacity="0"/>
</radialGradient>
<radialGradient id="paint7_radial_1_56" cx="0" cy="0" r="1" gradientUnits="userSpaceOnUse" gradientTransform="translate(98.0986 63.1937) rotate(-0.402691) scale(23.1474 28.221)">
<stop/>
<stop offset="1" stop-opacity="0"/>
</radialGradient>
</defs>
</svg>
